<svg width="100" height="100" viewBox="0 0 100 100" fill="none" xmlns="http://www.w3.org/2000/svg">
<g clip-path="url(#clip0_219_4)">
<mask id="mask0_219_4" style="mask-type:luminance" maskUnits="userSpaceOnUse" x="0" y="0" width="100" height="100">
<path d="M100 0H0V100H100V0Z" fill="white"/>
</mask>
<g mask="url(#mask0_219_4)">
<path d="M100 0H0V100H100V0Z" fill="#2E2AEB"/>
</g>
<path d="M61.9943 20.8182H74.2955V58.6023C74.2955 62.8447 73.2822 66.5568 71.2557 69.7386C69.2481 72.9205 66.4356 75.4015 62.8182 77.1818C59.2008 78.9432 54.9867 79.8239 50.1761 79.8239C45.3466 79.8239 41.1231 78.9432 37.5057 77.1818C33.8883 75.4015 31.0758 72.9205 29.0682 69.7386C27.0606 66.5568 26.0568 62.8447 26.0568 58.6023V20.8182H38.358V57.5511C38.358 59.767 38.8409 61.7367 39.8068 63.4602C40.7917 65.1837 42.1742 66.5379 43.9545 67.5227C45.7348 68.5076 47.8087 69 50.1761 69C52.5625 69 54.6364 68.5076 56.3977 67.5227C58.178 66.5379 59.5511 65.1837 60.517 63.4602C61.5019 61.7367 61.9943 59.767 61.9943 57.5511V20.8182Z" fill="#FFDE56"/>
</g>
<defs>
<clipPath id="clip0_219_4">
<rect width="100" height="100" fill="white"/>
</clipPath>
</defs>
</svg>
